<mxfile host="app.diagrams.net" modified="2023-10-13T16:24:24.974Z" agent="Mozilla/5.0 (Windows NT 10.0; Win64; x64; rv:109.0) Gecko/20100101 Firefox/118.0" etag="ScqQarwoHQJvpZe3WdqR" version="22.0.4" type="github">
  <diagram name="PÃ¡gina-1" id="PVvVwdM6uXwAvhA5qFd7">
    <mxGraphModel dx="1430" dy="818" grid="1" gridSize="10" guides="1" tooltips="1" connect="1" arrows="1" fold="1" page="1" pageScale="1" pageWidth="827" pageHeight="1169" math="0" shadow="0">
      <root>
        <mxCell id="0" />
        <mxCell id="1" parent="0" />
        <mxCell id="P5Dj7CCU3ey45bR8xJDD-16" value="Aula" style="swimlane;fontStyle=0;childLayout=stackLayout;horizontal=1;startSize=26;horizontalStack=0;resizeParent=1;resizeParentMax=0;resizeLast=0;collapsible=1;marginBottom=0;align=center;fontSize=14;" parent="1" vertex="1">
          <mxGeometry x="100" y="170" width="160" height="116" as="geometry" />
        </mxCell>
        <mxCell id="P5Dj7CCU3ey45bR8xJDD-17" value="&lt;u&gt;Numero&lt;/u&gt;" style="text;strokeColor=none;fillColor=none;spacingLeft=4;spacingRight=4;overflow=hidden;rotatable=0;points=[[0,0.5],[1,0.5]];portConstraint=eastwest;fontSize=12;whiteSpace=wrap;html=1;" parent="P5Dj7CCU3ey45bR8xJDD-16" vertex="1">
          <mxGeometry y="26" width="160" height="30" as="geometry" />
        </mxCell>
        <mxCell id="P5Dj7CCU3ey45bR8xJDD-18" value="Nombre" style="text;strokeColor=none;fillColor=none;spacingLeft=4;spacingRight=4;overflow=hidden;rotatable=0;points=[[0,0.5],[1,0.5]];portConstraint=eastwest;fontSize=12;whiteSpace=wrap;html=1;" parent="P5Dj7CCU3ey45bR8xJDD-16" vertex="1">
          <mxGeometry y="56" width="160" height="30" as="geometry" />
        </mxCell>
        <mxCell id="P5Dj7CCU3ey45bR8xJDD-19" value="Superficie" style="text;strokeColor=none;fillColor=none;spacingLeft=4;spacingRight=4;overflow=hidden;rotatable=0;points=[[0,0.5],[1,0.5]];portConstraint=eastwest;fontSize=12;whiteSpace=wrap;html=1;" parent="P5Dj7CCU3ey45bR8xJDD-16" vertex="1">
          <mxGeometry y="86" width="160" height="30" as="geometry" />
        </mxCell>
        <mxCell id="P5Dj7CCU3ey45bR8xJDD-20" value="Horario" style="swimlane;fontStyle=0;childLayout=stackLayout;horizontal=1;startSize=26;horizontalStack=0;resizeParent=1;resizeParentMax=0;resizeLast=0;collapsible=1;marginBottom=0;align=center;fontSize=14;" parent="1" vertex="1">
          <mxGeometry x="310" y="337" width="160" height="86" as="geometry" />
        </mxCell>
        <mxCell id="P5Dj7CCU3ey45bR8xJDD-21" value="&lt;u&gt;Hora&lt;/u&gt;" style="text;strokeColor=none;fillColor=none;spacingLeft=4;spacingRight=4;overflow=hidden;rotatable=0;points=[[0,0.5],[1,0.5]];portConstraint=eastwest;fontSize=12;whiteSpace=wrap;html=1;" parent="P5Dj7CCU3ey45bR8xJDD-20" vertex="1">
          <mxGeometry y="26" width="160" height="30" as="geometry" />
        </mxCell>
        <mxCell id="P5Dj7CCU3ey45bR8xJDD-22" value="&lt;u&gt;Dia_de_la_semana&lt;/u&gt;" style="text;strokeColor=none;fillColor=none;spacingLeft=4;spacingRight=4;overflow=hidden;rotatable=0;points=[[0,0.5],[1,0.5]];portConstraint=eastwest;fontSize=12;whiteSpace=wrap;html=1;" parent="P5Dj7CCU3ey45bR8xJDD-20" vertex="1">
          <mxGeometry y="56" width="160" height="30" as="geometry" />
        </mxCell>
        <mxCell id="P5Dj7CCU3ey45bR8xJDD-24" value="Asignatura" style="swimlane;fontStyle=0;childLayout=stackLayout;horizontal=1;startSize=26;horizontalStack=0;resizeParent=1;resizeParentMax=0;resizeLast=0;collapsible=1;marginBottom=0;align=center;fontSize=14;" parent="1" vertex="1">
          <mxGeometry x="100" y="500" width="160" height="116" as="geometry" />
        </mxCell>
        <mxCell id="P5Dj7CCU3ey45bR8xJDD-27" value="&lt;u&gt;Cod_Interno&lt;/u&gt;" style="text;strokeColor=none;fillColor=none;spacingLeft=4;spacingRight=4;overflow=hidden;rotatable=0;points=[[0,0.5],[1,0.5]];portConstraint=eastwest;fontSize=12;whiteSpace=wrap;html=1;" parent="P5Dj7CCU3ey45bR8xJDD-24" vertex="1">
          <mxGeometry y="26" width="160" height="30" as="geometry" />
        </mxCell>
        <mxCell id="P5Dj7CCU3ey45bR8xJDD-25" value="Nombre" style="text;strokeColor=none;fillColor=none;spacingLeft=4;spacingRight=4;overflow=hidden;rotatable=0;points=[[0,0.5],[1,0.5]];portConstraint=eastwest;fontSize=12;whiteSpace=wrap;html=1;" parent="P5Dj7CCU3ey45bR8xJDD-24" vertex="1">
          <mxGeometry y="56" width="160" height="30" as="geometry" />
        </mxCell>
        <mxCell id="P5Dj7CCU3ey45bR8xJDD-26" value="Cod_Europeo" style="text;strokeColor=none;fillColor=none;spacingLeft=4;spacingRight=4;overflow=hidden;rotatable=0;points=[[0,0.5],[1,0.5]];portConstraint=eastwest;fontSize=12;whiteSpace=wrap;html=1;" parent="P5Dj7CCU3ey45bR8xJDD-24" vertex="1">
          <mxGeometry y="86" width="160" height="30" as="geometry" />
        </mxCell>
        <mxCell id="P5Dj7CCU3ey45bR8xJDD-28" value="Ciclo" style="swimlane;fontStyle=0;childLayout=stackLayout;horizontal=1;startSize=26;horizontalStack=0;resizeParent=1;resizeParentMax=0;resizeLast=0;collapsible=1;marginBottom=0;align=center;fontSize=14;" parent="1" vertex="1">
          <mxGeometry x="570" y="492" width="160" height="116" as="geometry" />
        </mxCell>
        <mxCell id="P5Dj7CCU3ey45bR8xJDD-31" value="&lt;u&gt;Cod_Interno&lt;/u&gt;" style="text;strokeColor=none;fillColor=none;spacingLeft=4;spacingRight=4;overflow=hidden;rotatable=0;points=[[0,0.5],[1,0.5]];portConstraint=eastwest;fontSize=12;whiteSpace=wrap;html=1;" parent="P5Dj7CCU3ey45bR8xJDD-28" vertex="1">
          <mxGeometry y="26" width="160" height="30" as="geometry" />
        </mxCell>
        <mxCell id="P5Dj7CCU3ey45bR8xJDD-29" value="Nombre" style="text;strokeColor=none;fillColor=none;spacingLeft=4;spacingRight=4;overflow=hidden;rotatable=0;points=[[0,0.5],[1,0.5]];portConstraint=eastwest;fontSize=12;whiteSpace=wrap;html=1;" parent="P5Dj7CCU3ey45bR8xJDD-28" vertex="1">
          <mxGeometry y="56" width="160" height="30" as="geometry" />
        </mxCell>
        <mxCell id="P5Dj7CCU3ey45bR8xJDD-30" value="Tipo" style="text;strokeColor=none;fillColor=none;spacingLeft=4;spacingRight=4;overflow=hidden;rotatable=0;points=[[0,0.5],[1,0.5]];portConstraint=eastwest;fontSize=12;whiteSpace=wrap;html=1;" parent="P5Dj7CCU3ey45bR8xJDD-28" vertex="1">
          <mxGeometry y="86" width="160" height="30" as="geometry" />
        </mxCell>
        <mxCell id="P5Dj7CCU3ey45bR8xJDD-32" value="OCUPA" style="shape=rhombus;perimeter=rhombusPerimeter;whiteSpace=wrap;html=1;align=center;" parent="1" vertex="1">
          <mxGeometry x="120" y="350" width="120" height="60" as="geometry" />
        </mxCell>
        <mxCell id="P5Dj7CCU3ey45bR8xJDD-33" value="REQUIERE" style="shape=rhombus;perimeter=rhombusPerimeter;whiteSpace=wrap;html=1;align=center;" parent="1" vertex="1">
          <mxGeometry x="120" y="670" width="120" height="60" as="geometry" />
        </mxCell>
        <mxCell id="P5Dj7CCU3ey45bR8xJDD-34" value="IMPARTIR" style="shape=rhombus;perimeter=rhombusPerimeter;whiteSpace=wrap;html=1;align=center;" parent="1" vertex="1">
          <mxGeometry x="330" y="520" width="120" height="60" as="geometry" />
        </mxCell>
        <mxCell id="P5Dj7CCU3ey45bR8xJDD-35" value="" style="endArrow=ERone;html=1;rounded=0;startArrow=none;startFill=0;endFill=0;" parent="1" target="P5Dj7CCU3ey45bR8xJDD-16" edge="1">
          <mxGeometry width="50" height="50" relative="1" as="geometry">
            <mxPoint x="180" y="353" as="sourcePoint" />
            <mxPoint x="180" y="289" as="targetPoint" />
          </mxGeometry>
        </mxCell>
        <mxCell id="P5Dj7CCU3ey45bR8xJDD-36" value="" style="endArrow=none;html=1;rounded=0;startArrow=ERone;startFill=0;" parent="1" source="P5Dj7CCU3ey45bR8xJDD-24" edge="1">
          <mxGeometry width="50" height="50" relative="1" as="geometry">
            <mxPoint x="179.5" y="474" as="sourcePoint" />
            <mxPoint x="179.5" y="410" as="targetPoint" />
          </mxGeometry>
        </mxCell>
        <mxCell id="P5Dj7CCU3ey45bR8xJDD-37" value="" style="endArrow=ERzeroToOne;html=1;rounded=0;exitX=0;exitY=0.5;exitDx=0;exitDy=0;endFill=0;" parent="1" source="P5Dj7CCU3ey45bR8xJDD-33" target="P5Dj7CCU3ey45bR8xJDD-24" edge="1">
          <mxGeometry width="50" height="50" relative="1" as="geometry">
            <mxPoint x="119" y="694" as="sourcePoint" />
            <mxPoint x="119" y="630" as="targetPoint" />
          </mxGeometry>
        </mxCell>
        <mxCell id="P5Dj7CCU3ey45bR8xJDD-38" value="" style="endArrow=ERzeroToOne;html=1;rounded=0;endFill=0;" parent="1" target="P5Dj7CCU3ey45bR8xJDD-24" edge="1">
          <mxGeometry width="50" height="50" relative="1" as="geometry">
            <mxPoint x="240" y="700" as="sourcePoint" />
            <mxPoint x="275" y="626" as="targetPoint" />
          </mxGeometry>
        </mxCell>
        <mxCell id="P5Dj7CCU3ey45bR8xJDD-39" value="" style="endArrow=none;html=1;rounded=0;entryX=0;entryY=0.5;entryDx=0;entryDy=0;startArrow=ERmany;startFill=0;" parent="1" target="P5Dj7CCU3ey45bR8xJDD-34" edge="1">
          <mxGeometry width="50" height="50" relative="1" as="geometry">
            <mxPoint x="260" y="549.5" as="sourcePoint" />
            <mxPoint x="340" y="550" as="targetPoint" />
          </mxGeometry>
        </mxCell>
        <mxCell id="P5Dj7CCU3ey45bR8xJDD-40" value="" style="endArrow=ERmany;html=1;rounded=0;exitX=0;exitY=0.5;exitDx=0;exitDy=0;endFill=0;" parent="1" target="P5Dj7CCU3ey45bR8xJDD-28" edge="1">
          <mxGeometry width="50" height="50" relative="1" as="geometry">
            <mxPoint x="450" y="549.5" as="sourcePoint" />
            <mxPoint x="540" y="550" as="targetPoint" />
          </mxGeometry>
        </mxCell>
        <mxCell id="P5Dj7CCU3ey45bR8xJDD-41" value="" style="endArrow=ERmany;html=1;rounded=0;exitX=0;exitY=0.5;exitDx=0;exitDy=0;endFill=0;" parent="1" target="P5Dj7CCU3ey45bR8xJDD-20" edge="1">
          <mxGeometry width="50" height="50" relative="1" as="geometry">
            <mxPoint x="240" y="379.5" as="sourcePoint" />
            <mxPoint x="280" y="380" as="targetPoint" />
          </mxGeometry>
        </mxCell>
        <mxCell id="P5Dj7CCU3ey45bR8xJDD-42" value="Profesor" style="swimlane;fontStyle=0;childLayout=stackLayout;horizontal=1;startSize=26;horizontalStack=0;resizeParent=1;resizeParentMax=0;resizeLast=0;collapsible=1;marginBottom=0;align=center;fontSize=14;" parent="1" vertex="1">
          <mxGeometry x="310" y="780" width="160" height="266" as="geometry" />
        </mxCell>
        <mxCell id="P5Dj7CCU3ey45bR8xJDD-43" value="DNI" style="text;strokeColor=none;fillColor=none;spacingLeft=4;spacingRight=4;overflow=hidden;rotatable=0;points=[[0,0.5],[1,0.5]];portConstraint=eastwest;fontSize=12;whiteSpace=wrap;html=1;" parent="P5Dj7CCU3ey45bR8xJDD-42" vertex="1">
          <mxGeometry y="26" width="160" height="30" as="geometry" />
        </mxCell>
        <mxCell id="P5Dj7CCU3ey45bR8xJDD-44" value="Nombre" style="text;strokeColor=none;fillColor=none;spacingLeft=4;spacingRight=4;overflow=hidden;rotatable=0;points=[[0,0.5],[1,0.5]];portConstraint=eastwest;fontSize=12;whiteSpace=wrap;html=1;" parent="P5Dj7CCU3ey45bR8xJDD-42" vertex="1">
          <mxGeometry y="56" width="160" height="30" as="geometry" />
        </mxCell>
        <mxCell id="P5Dj7CCU3ey45bR8xJDD-45" value="&lt;div&gt;DirecciÃ³n&lt;/div&gt;&lt;div&gt;&lt;br&gt;&lt;/div&gt;" style="text;strokeColor=none;fillColor=none;spacingLeft=4;spacingRight=4;overflow=hidden;rotatable=0;points=[[0,0.5],[1,0.5]];portConstraint=eastwest;fontSize=12;whiteSpace=wrap;html=1;" parent="P5Dj7CCU3ey45bR8xJDD-42" vertex="1">
          <mxGeometry y="86" width="160" height="30" as="geometry" />
        </mxCell>
        <mxCell id="P5Dj7CCU3ey45bR8xJDD-46" value="TelÃ©fono" style="text;strokeColor=none;fillColor=none;spacingLeft=4;spacingRight=4;overflow=hidden;rotatable=0;points=[[0,0.5],[1,0.5]];portConstraint=eastwest;fontSize=12;whiteSpace=wrap;html=1;" parent="P5Dj7CCU3ey45bR8xJDD-42" vertex="1">
          <mxGeometry y="116" width="160" height="30" as="geometry" />
        </mxCell>
        <mxCell id="P5Dj7CCU3ey45bR8xJDD-49" value="&lt;div&gt;DirecciÃ³n&lt;/div&gt;&lt;div&gt;&lt;br&gt;&lt;/div&gt;" style="text;strokeColor=none;fillColor=none;spacingLeft=4;spacingRight=4;overflow=hidden;rotatable=0;points=[[0,0.5],[1,0.5]];portConstraint=eastwest;fontSize=12;whiteSpace=wrap;html=1;" parent="P5Dj7CCU3ey45bR8xJDD-42" vertex="1">
          <mxGeometry y="146" width="160" height="30" as="geometry" />
        </mxCell>
        <mxCell id="P5Dj7CCU3ey45bR8xJDD-47" value="Correo" style="text;strokeColor=none;fillColor=none;spacingLeft=4;spacingRight=4;overflow=hidden;rotatable=0;points=[[0,0.5],[1,0.5]];portConstraint=eastwest;fontSize=12;whiteSpace=wrap;html=1;" parent="P5Dj7CCU3ey45bR8xJDD-42" vertex="1">
          <mxGeometry y="176" width="160" height="30" as="geometry" />
        </mxCell>
        <mxCell id="P5Dj7CCU3ey45bR8xJDD-48" value="N_SS" style="text;strokeColor=none;fillColor=none;spacingLeft=4;spacingRight=4;overflow=hidden;rotatable=0;points=[[0,0.5],[1,0.5]];portConstraint=eastwest;fontSize=12;whiteSpace=wrap;html=1;" parent="P5Dj7CCU3ey45bR8xJDD-42" vertex="1">
          <mxGeometry y="206" width="160" height="30" as="geometry" />
        </mxCell>
        <mxCell id="P5Dj7CCU3ey45bR8xJDD-50" value="Cod_Interno" style="text;strokeColor=none;fillColor=none;spacingLeft=4;spacingRight=4;overflow=hidden;rotatable=0;points=[[0,0.5],[1,0.5]];portConstraint=eastwest;fontSize=12;whiteSpace=wrap;html=1;" parent="P5Dj7CCU3ey45bR8xJDD-42" vertex="1">
          <mxGeometry y="236" width="160" height="30" as="geometry" />
        </mxCell>
        <mxCell id="P5Dj7CCU3ey45bR8xJDD-52" value="" style="endArrow=none;html=1;rounded=0;startArrow=ERone;startFill=0;" parent="1" source="P5Dj7CCU3ey45bR8xJDD-42" edge="1">
          <mxGeometry width="50" height="50" relative="1" as="geometry">
            <mxPoint x="340" y="630" as="sourcePoint" />
            <mxPoint x="390" y="580" as="targetPoint" />
          </mxGeometry>
        </mxCell>
        <mxCell id="P5Dj7CCU3ey45bR8xJDD-53" value="&lt;div&gt;AÃ±o&lt;/div&gt;" style="whiteSpace=wrap;html=1;align=center;" parent="1" vertex="1">
          <mxGeometry x="280" y="460" width="80" height="32" as="geometry" />
        </mxCell>
        <mxCell id="P5Dj7CCU3ey45bR8xJDD-54" value="" style="endArrow=none;html=1;rounded=0;exitX=0;exitY=0;exitDx=0;exitDy=0;" parent="1" source="P5Dj7CCU3ey45bR8xJDD-34" edge="1">
          <mxGeometry width="50" height="50" relative="1" as="geometry">
            <mxPoint x="280" y="542" as="sourcePoint" />
            <mxPoint x="330" y="492" as="targetPoint" />
          </mxGeometry>
        </mxCell>
        <mxCell id="P5Dj7CCU3ey45bR8xJDD-55" value="DAR" style="shape=rhombus;perimeter=rhombusPerimeter;whiteSpace=wrap;html=1;align=center;" parent="1" vertex="1">
          <mxGeometry x="110" y="883" width="120" height="60" as="geometry" />
        </mxCell>
        <mxCell id="P5Dj7CCU3ey45bR8xJDD-58" value="" style="endArrow=none;html=1;rounded=0;entryX=1;entryY=0.5;entryDx=0;entryDy=0;startArrow=ERoneToMany;startFill=0;" parent="1" source="P5Dj7CCU3ey45bR8xJDD-42" target="P5Dj7CCU3ey45bR8xJDD-55" edge="1">
          <mxGeometry width="50" height="50" relative="1" as="geometry">
            <mxPoint x="270" y="823" as="sourcePoint" />
            <mxPoint x="240" y="780" as="targetPoint" />
          </mxGeometry>
        </mxCell>
        <mxCell id="P5Dj7CCU3ey45bR8xJDD-59" value="" style="endArrow=none;html=1;rounded=0;" parent="1" edge="1">
          <mxGeometry width="50" height="50" relative="1" as="geometry">
            <mxPoint x="40" y="920" as="sourcePoint" />
            <mxPoint x="40" y="560" as="targetPoint" />
          </mxGeometry>
        </mxCell>
        <mxCell id="P5Dj7CCU3ey45bR8xJDD-60" value="" style="endArrow=none;html=1;rounded=0;exitX=-0.006;exitY=0.133;exitDx=0;exitDy=0;exitPerimeter=0;startArrow=ERoneToMany;startFill=0;" parent="1" source="P5Dj7CCU3ey45bR8xJDD-25" edge="1">
          <mxGeometry width="50" height="50" relative="1" as="geometry">
            <mxPoint x="100" y="563" as="sourcePoint" />
            <mxPoint x="40" y="560" as="targetPoint" />
          </mxGeometry>
        </mxCell>
        <mxCell id="P5Dj7CCU3ey45bR8xJDD-62" value="" style="endArrow=none;html=1;rounded=0;exitX=0;exitY=0.5;exitDx=0;exitDy=0;" parent="1" source="P5Dj7CCU3ey45bR8xJDD-55" edge="1">
          <mxGeometry width="50" height="50" relative="1" as="geometry">
            <mxPoint x="110" y="914.5" as="sourcePoint" />
            <mxPoint x="40" y="913" as="targetPoint" />
          </mxGeometry>
        </mxCell>
        <mxCell id="P5Dj7CCU3ey45bR8xJDD-63" value="&lt;div&gt;Tutoriza&lt;/div&gt;" style="shape=rhombus;perimeter=rhombusPerimeter;whiteSpace=wrap;html=1;align=center;" parent="1" vertex="1">
          <mxGeometry x="590" y="883" width="120" height="60" as="geometry" />
        </mxCell>
        <mxCell id="P5Dj7CCU3ey45bR8xJDD-64" value="" style="endArrow=ERmandOne;html=1;rounded=0;endFill=0;" parent="1" target="P5Dj7CCU3ey45bR8xJDD-42" edge="1">
          <mxGeometry width="50" height="50" relative="1" as="geometry">
            <mxPoint x="590" y="913" as="sourcePoint" />
            <mxPoint x="480" y="912.75" as="targetPoint" />
          </mxGeometry>
        </mxCell>
        <mxCell id="P5Dj7CCU3ey45bR8xJDD-66" value="" style="endArrow=none;html=1;rounded=0;startArrow=ERzeroToOne;startFill=0;" parent="1" source="P5Dj7CCU3ey45bR8xJDD-28" target="P5Dj7CCU3ey45bR8xJDD-63" edge="1">
          <mxGeometry width="50" height="50" relative="1" as="geometry">
            <mxPoint x="720" y="830" as="sourcePoint" />
            <mxPoint x="640" y="830" as="targetPoint" />
          </mxGeometry>
        </mxCell>
        <mxCell id="P5Dj7CCU3ey45bR8xJDD-67" value="AntigÃ¼edad" style="whiteSpace=wrap;html=1;align=center;" parent="1" vertex="1">
          <mxGeometry x="70" y="820" width="90" height="20" as="geometry" />
        </mxCell>
        <mxCell id="P5Dj7CCU3ey45bR8xJDD-68" value="" style="endArrow=none;html=1;rounded=0;entryX=0.5;entryY=1;entryDx=0;entryDy=0;exitX=0.297;exitY=0.2;exitDx=0;exitDy=0;exitPerimeter=0;" parent="1" source="P5Dj7CCU3ey45bR8xJDD-55" target="P5Dj7CCU3ey45bR8xJDD-67" edge="1">
          <mxGeometry relative="1" as="geometry">
            <mxPoint x="176.01999999999995" y="896.3199999999999" as="sourcePoint" />
            <mxPoint x="163.98999999999998" y="839.6599999999999" as="targetPoint" />
          </mxGeometry>
        </mxCell>
        <mxCell id="P5Dj7CCU3ey45bR8xJDD-165" value="Aula" style="swimlane;fontStyle=0;childLayout=stackLayout;horizontal=1;startSize=26;horizontalStack=0;resizeParent=1;resizeParentMax=0;resizeLast=0;collapsible=1;marginBottom=0;align=center;fontSize=14;" parent="1" vertex="1">
          <mxGeometry x="1010" y="180" width="160" height="116" as="geometry" />
        </mxCell>
        <mxCell id="P5Dj7CCU3ey45bR8xJDD-166" value="&lt;u&gt;Numero&lt;/u&gt;" style="text;strokeColor=none;fillColor=none;spacingLeft=4;spacingRight=4;overflow=hidden;rotatable=0;points=[[0,0.5],[1,0.5]];portConstraint=eastwest;fontSize=12;whiteSpace=wrap;html=1;" parent="P5Dj7CCU3ey45bR8xJDD-165" vertex="1">
          <mxGeometry y="26" width="160" height="30" as="geometry" />
        </mxCell>
        <mxCell id="P5Dj7CCU3ey45bR8xJDD-167" value="Nombre" style="text;strokeColor=none;fillColor=none;spacingLeft=4;spacingRight=4;overflow=hidden;rotatable=0;points=[[0,0.5],[1,0.5]];portConstraint=eastwest;fontSize=12;whiteSpace=wrap;html=1;" parent="P5Dj7CCU3ey45bR8xJDD-165" vertex="1">
          <mxGeometry y="56" width="160" height="30" as="geometry" />
        </mxCell>
        <mxCell id="P5Dj7CCU3ey45bR8xJDD-168" value="Superficie" style="text;strokeColor=none;fillColor=none;spacingLeft=4;spacingRight=4;overflow=hidden;rotatable=0;points=[[0,0.5],[1,0.5]];portConstraint=eastwest;fontSize=12;whiteSpace=wrap;html=1;" parent="P5Dj7CCU3ey45bR8xJDD-165" vertex="1">
          <mxGeometry y="86" width="160" height="30" as="geometry" />
        </mxCell>
        <mxCell id="P5Dj7CCU3ey45bR8xJDD-169" value="Horario" style="swimlane;fontStyle=0;childLayout=stackLayout;horizontal=1;startSize=26;horizontalStack=0;resizeParent=1;resizeParentMax=0;resizeLast=0;collapsible=1;marginBottom=0;align=center;fontSize=14;" parent="1" vertex="1">
          <mxGeometry x="1230" y="337" width="160" height="116" as="geometry" />
        </mxCell>
        <mxCell id="P5Dj7CCU3ey45bR8xJDD-170" value="&lt;u&gt;Hora&lt;/u&gt;" style="text;strokeColor=none;fillColor=none;spacingLeft=4;spacingRight=4;overflow=hidden;rotatable=0;points=[[0,0.5],[1,0.5]];portConstraint=eastwest;fontSize=12;whiteSpace=wrap;html=1;" parent="P5Dj7CCU3ey45bR8xJDD-169" vertex="1">
          <mxGeometry y="26" width="160" height="30" as="geometry" />
        </mxCell>
        <mxCell id="P5Dj7CCU3ey45bR8xJDD-212" value="&lt;u&gt;DD_MM__YY&lt;/u&gt;" style="text;strokeColor=none;fillColor=none;spacingLeft=4;spacingRight=4;overflow=hidden;rotatable=0;points=[[0,0.5],[1,0.5]];portConstraint=eastwest;fontSize=12;whiteSpace=wrap;html=1;" parent="P5Dj7CCU3ey45bR8xJDD-169" vertex="1">
          <mxGeometry y="56" width="160" height="30" as="geometry" />
        </mxCell>
        <mxCell id="P5Dj7CCU3ey45bR8xJDD-171" value="Dia_de_la_semana" style="text;strokeColor=none;fillColor=none;spacingLeft=4;spacingRight=4;overflow=hidden;rotatable=0;points=[[0,0.5],[1,0.5]];portConstraint=eastwest;fontSize=12;whiteSpace=wrap;html=1;" parent="P5Dj7CCU3ey45bR8xJDD-169" vertex="1">
          <mxGeometry y="86" width="160" height="30" as="geometry" />
        </mxCell>
        <mxCell id="P5Dj7CCU3ey45bR8xJDD-172" value="Asignatura" style="swimlane;fontStyle=0;childLayout=stackLayout;horizontal=1;startSize=26;horizontalStack=0;resizeParent=1;resizeParentMax=0;resizeLast=0;collapsible=1;marginBottom=0;align=center;fontSize=14;" parent="1" vertex="1">
          <mxGeometry x="1010" y="510" width="160" height="116" as="geometry" />
        </mxCell>
        <mxCell id="P5Dj7CCU3ey45bR8xJDD-173" value="&lt;u&gt;Cod_Interno&lt;/u&gt;" style="text;strokeColor=none;fillColor=none;spacingLeft=4;spacingRight=4;overflow=hidden;rotatable=0;points=[[0,0.5],[1,0.5]];portConstraint=eastwest;fontSize=12;whiteSpace=wrap;html=1;" parent="P5Dj7CCU3ey45bR8xJDD-172" vertex="1">
          <mxGeometry y="26" width="160" height="30" as="geometry" />
        </mxCell>
        <mxCell id="P5Dj7CCU3ey45bR8xJDD-174" value="Nombre" style="text;strokeColor=none;fillColor=none;spacingLeft=4;spacingRight=4;overflow=hidden;rotatable=0;points=[[0,0.5],[1,0.5]];portConstraint=eastwest;fontSize=12;whiteSpace=wrap;html=1;" parent="P5Dj7CCU3ey45bR8xJDD-172" vertex="1">
          <mxGeometry y="56" width="160" height="30" as="geometry" />
        </mxCell>
        <mxCell id="P5Dj7CCU3ey45bR8xJDD-175" value="Cod_Europeo" style="text;strokeColor=none;fillColor=none;spacingLeft=4;spacingRight=4;overflow=hidden;rotatable=0;points=[[0,0.5],[1,0.5]];portConstraint=eastwest;fontSize=12;whiteSpace=wrap;html=1;" parent="P5Dj7CCU3ey45bR8xJDD-172" vertex="1">
          <mxGeometry y="86" width="160" height="30" as="geometry" />
        </mxCell>
        <mxCell id="P5Dj7CCU3ey45bR8xJDD-176" value="Ciclo" style="swimlane;fontStyle=0;childLayout=stackLayout;horizontal=1;startSize=26;horizontalStack=0;resizeParent=1;resizeParentMax=0;resizeLast=0;collapsible=1;marginBottom=0;align=center;fontSize=14;" parent="1" vertex="1">
          <mxGeometry x="1480" y="502" width="160" height="116" as="geometry" />
        </mxCell>
        <mxCell id="P5Dj7CCU3ey45bR8xJDD-177" value="&lt;u&gt;Cod_Interno&lt;/u&gt;" style="text;strokeColor=none;fillColor=none;spacingLeft=4;spacingRight=4;overflow=hidden;rotatable=0;points=[[0,0.5],[1,0.5]];portConstraint=eastwest;fontSize=12;whiteSpace=wrap;html=1;" parent="P5Dj7CCU3ey45bR8xJDD-176" vertex="1">
          <mxGeometry y="26" width="160" height="30" as="geometry" />
        </mxCell>
        <mxCell id="P5Dj7CCU3ey45bR8xJDD-178" value="Nombre" style="text;strokeColor=none;fillColor=none;spacingLeft=4;spacingRight=4;overflow=hidden;rotatable=0;points=[[0,0.5],[1,0.5]];portConstraint=eastwest;fontSize=12;whiteSpace=wrap;html=1;" parent="P5Dj7CCU3ey45bR8xJDD-176" vertex="1">
          <mxGeometry y="56" width="160" height="30" as="geometry" />
        </mxCell>
        <mxCell id="P5Dj7CCU3ey45bR8xJDD-179" value="Tipo" style="text;strokeColor=none;fillColor=none;spacingLeft=4;spacingRight=4;overflow=hidden;rotatable=0;points=[[0,0.5],[1,0.5]];portConstraint=eastwest;fontSize=12;whiteSpace=wrap;html=1;" parent="P5Dj7CCU3ey45bR8xJDD-176" vertex="1">
          <mxGeometry y="86" width="160" height="30" as="geometry" />
        </mxCell>
        <mxCell id="P5Dj7CCU3ey45bR8xJDD-180" value="OCUPA" style="shape=rhombus;perimeter=rhombusPerimeter;whiteSpace=wrap;html=1;align=center;" parent="1" vertex="1">
          <mxGeometry x="1030" y="360" width="120" height="60" as="geometry" />
        </mxCell>
        <mxCell id="P5Dj7CCU3ey45bR8xJDD-181" value="REQUIERE" style="shape=rhombus;perimeter=rhombusPerimeter;whiteSpace=wrap;html=1;align=center;" parent="1" vertex="1">
          <mxGeometry x="1030" y="680" width="120" height="60" as="geometry" />
        </mxCell>
        <mxCell id="P5Dj7CCU3ey45bR8xJDD-182" value="IMPARTIR" style="shape=rhombus;perimeter=rhombusPerimeter;whiteSpace=wrap;html=1;align=center;" parent="1" vertex="1">
          <mxGeometry x="1240" y="530" width="120" height="60" as="geometry" />
        </mxCell>
        <mxCell id="P5Dj7CCU3ey45bR8xJDD-183" value="" style="endArrow=ERone;html=1;rounded=0;startArrow=none;startFill=0;endFill=0;" parent="1" target="P5Dj7CCU3ey45bR8xJDD-165" edge="1">
          <mxGeometry width="50" height="50" relative="1" as="geometry">
            <mxPoint x="1090" y="363" as="sourcePoint" />
            <mxPoint x="1090" y="299" as="targetPoint" />
          </mxGeometry>
        </mxCell>
        <mxCell id="P5Dj7CCU3ey45bR8xJDD-184" value="" style="endArrow=none;html=1;rounded=0;startArrow=ERone;startFill=0;" parent="1" source="P5Dj7CCU3ey45bR8xJDD-172" edge="1">
          <mxGeometry width="50" height="50" relative="1" as="geometry">
            <mxPoint x="1089.5" y="484" as="sourcePoint" />
            <mxPoint x="1089.5" y="420" as="targetPoint" />
          </mxGeometry>
        </mxCell>
        <mxCell id="P5Dj7CCU3ey45bR8xJDD-185" value="" style="endArrow=ERzeroToOne;html=1;rounded=0;exitX=0;exitY=0.5;exitDx=0;exitDy=0;endFill=0;" parent="1" source="P5Dj7CCU3ey45bR8xJDD-181" target="P5Dj7CCU3ey45bR8xJDD-172" edge="1">
          <mxGeometry width="50" height="50" relative="1" as="geometry">
            <mxPoint x="1029" y="704" as="sourcePoint" />
            <mxPoint x="1029" y="640" as="targetPoint" />
          </mxGeometry>
        </mxCell>
        <mxCell id="P5Dj7CCU3ey45bR8xJDD-186" value="" style="endArrow=ERzeroToOne;html=1;rounded=0;endFill=0;" parent="1" target="P5Dj7CCU3ey45bR8xJDD-172" edge="1">
          <mxGeometry width="50" height="50" relative="1" as="geometry">
            <mxPoint x="1150" y="710" as="sourcePoint" />
            <mxPoint x="1185" y="636" as="targetPoint" />
          </mxGeometry>
        </mxCell>
        <mxCell id="P5Dj7CCU3ey45bR8xJDD-187" value="" style="endArrow=none;html=1;rounded=0;entryX=0;entryY=0.5;entryDx=0;entryDy=0;startArrow=ERmany;startFill=0;" parent="1" target="P5Dj7CCU3ey45bR8xJDD-182" edge="1">
          <mxGeometry width="50" height="50" relative="1" as="geometry">
            <mxPoint x="1170" y="559.5" as="sourcePoint" />
            <mxPoint x="1250" y="560" as="targetPoint" />
          </mxGeometry>
        </mxCell>
        <mxCell id="P5Dj7CCU3ey45bR8xJDD-188" value="" style="endArrow=ERmany;html=1;rounded=0;exitX=0;exitY=0.5;exitDx=0;exitDy=0;endFill=0;" parent="1" target="P5Dj7CCU3ey45bR8xJDD-176" edge="1">
          <mxGeometry width="50" height="50" relative="1" as="geometry">
            <mxPoint x="1360" y="559.5" as="sourcePoint" />
            <mxPoint x="1450" y="560" as="targetPoint" />
          </mxGeometry>
        </mxCell>
        <mxCell id="P5Dj7CCU3ey45bR8xJDD-189" value="" style="endArrow=ERmany;html=1;rounded=0;exitX=0;exitY=0.5;exitDx=0;exitDy=0;endFill=0;" parent="1" target="P5Dj7CCU3ey45bR8xJDD-169" edge="1">
          <mxGeometry width="50" height="50" relative="1" as="geometry">
            <mxPoint x="1150" y="389.5" as="sourcePoint" />
            <mxPoint x="1190" y="390" as="targetPoint" />
          </mxGeometry>
        </mxCell>
        <mxCell id="P5Dj7CCU3ey45bR8xJDD-190" value="Profesor" style="swimlane;fontStyle=0;childLayout=stackLayout;horizontal=1;startSize=26;horizontalStack=0;resizeParent=1;resizeParentMax=0;resizeLast=0;collapsible=1;marginBottom=0;align=center;fontSize=14;" parent="1" vertex="1">
          <mxGeometry x="1220" y="790" width="160" height="266" as="geometry" />
        </mxCell>
        <mxCell id="P5Dj7CCU3ey45bR8xJDD-191" value="DNI" style="text;strokeColor=none;fillColor=none;spacingLeft=4;spacingRight=4;overflow=hidden;rotatable=0;points=[[0,0.5],[1,0.5]];portConstraint=eastwest;fontSize=12;whiteSpace=wrap;html=1;" parent="P5Dj7CCU3ey45bR8xJDD-190" vertex="1">
          <mxGeometry y="26" width="160" height="30" as="geometry" />
        </mxCell>
        <mxCell id="P5Dj7CCU3ey45bR8xJDD-192" value="Nombre" style="text;strokeColor=none;fillColor=none;spacingLeft=4;spacingRight=4;overflow=hidden;rotatable=0;points=[[0,0.5],[1,0.5]];portConstraint=eastwest;fontSize=12;whiteSpace=wrap;html=1;" parent="P5Dj7CCU3ey45bR8xJDD-190" vertex="1">
          <mxGeometry y="56" width="160" height="30" as="geometry" />
        </mxCell>
        <mxCell id="P5Dj7CCU3ey45bR8xJDD-193" value="&lt;div&gt;DirecciÃ³n&lt;/div&gt;&lt;div&gt;&lt;br&gt;&lt;/div&gt;" style="text;strokeColor=none;fillColor=none;spacingLeft=4;spacingRight=4;overflow=hidden;rotatable=0;points=[[0,0.5],[1,0.5]];portConstraint=eastwest;fontSize=12;whiteSpace=wrap;html=1;" parent="P5Dj7CCU3ey45bR8xJDD-190" vertex="1">
          <mxGeometry y="86" width="160" height="30" as="geometry" />
        </mxCell>
        <mxCell id="P5Dj7CCU3ey45bR8xJDD-194" value="TelÃ©fono" style="text;strokeColor=none;fillColor=none;spacingLeft=4;spacingRight=4;overflow=hidden;rotatable=0;points=[[0,0.5],[1,0.5]];portConstraint=eastwest;fontSize=12;whiteSpace=wrap;html=1;" parent="P5Dj7CCU3ey45bR8xJDD-190" vertex="1">
          <mxGeometry y="116" width="160" height="30" as="geometry" />
        </mxCell>
        <mxCell id="P5Dj7CCU3ey45bR8xJDD-195" value="&lt;div&gt;DirecciÃ³n&lt;/div&gt;&lt;div&gt;&lt;br&gt;&lt;/div&gt;" style="text;strokeColor=none;fillColor=none;spacingLeft=4;spacingRight=4;overflow=hidden;rotatable=0;points=[[0,0.5],[1,0.5]];portConstraint=eastwest;fontSize=12;whiteSpace=wrap;html=1;" parent="P5Dj7CCU3ey45bR8xJDD-190" vertex="1">
          <mxGeometry y="146" width="160" height="30" as="geometry" />
        </mxCell>
        <mxCell id="P5Dj7CCU3ey45bR8xJDD-196" value="Correo" style="text;strokeColor=none;fillColor=none;spacingLeft=4;spacingRight=4;overflow=hidden;rotatable=0;points=[[0,0.5],[1,0.5]];portConstraint=eastwest;fontSize=12;whiteSpace=wrap;html=1;" parent="P5Dj7CCU3ey45bR8xJDD-190" vertex="1">
          <mxGeometry y="176" width="160" height="30" as="geometry" />
        </mxCell>
        <mxCell id="P5Dj7CCU3ey45bR8xJDD-197" value="N_SS" style="text;strokeColor=none;fillColor=none;spacingLeft=4;spacingRight=4;overflow=hidden;rotatable=0;points=[[0,0.5],[1,0.5]];portConstraint=eastwest;fontSize=12;whiteSpace=wrap;html=1;" parent="P5Dj7CCU3ey45bR8xJDD-190" vertex="1">
          <mxGeometry y="206" width="160" height="30" as="geometry" />
        </mxCell>
        <mxCell id="P5Dj7CCU3ey45bR8xJDD-198" value="Cod_Interno" style="text;strokeColor=none;fillColor=none;spacingLeft=4;spacingRight=4;overflow=hidden;rotatable=0;points=[[0,0.5],[1,0.5]];portConstraint=eastwest;fontSize=12;whiteSpace=wrap;html=1;" parent="P5Dj7CCU3ey45bR8xJDD-190" vertex="1">
          <mxGeometry y="236" width="160" height="30" as="geometry" />
        </mxCell>
        <mxCell id="P5Dj7CCU3ey45bR8xJDD-199" value="" style="endArrow=none;html=1;rounded=0;startArrow=ERmany;startFill=0;" parent="1" source="P5Dj7CCU3ey45bR8xJDD-190" edge="1">
          <mxGeometry width="50" height="50" relative="1" as="geometry">
            <mxPoint x="1250" y="640" as="sourcePoint" />
            <mxPoint x="1300" y="590" as="targetPoint" />
          </mxGeometry>
        </mxCell>
        <mxCell id="P5Dj7CCU3ey45bR8xJDD-200" value="&lt;div&gt;Fecha inicio&lt;br&gt;&lt;/div&gt;" style="whiteSpace=wrap;html=1;align=center;" parent="1" vertex="1">
          <mxGeometry x="1190" y="470" width="80" height="32" as="geometry" />
        </mxCell>
        <mxCell id="P5Dj7CCU3ey45bR8xJDD-201" value="" style="endArrow=none;html=1;rounded=0;exitX=0;exitY=0;exitDx=0;exitDy=0;" parent="1" source="P5Dj7CCU3ey45bR8xJDD-182" edge="1">
          <mxGeometry width="50" height="50" relative="1" as="geometry">
            <mxPoint x="1190" y="552" as="sourcePoint" />
            <mxPoint x="1240" y="502" as="targetPoint" />
          </mxGeometry>
        </mxCell>
        <mxCell id="P5Dj7CCU3ey45bR8xJDD-202" value="DAR" style="shape=rhombus;perimeter=rhombusPerimeter;whiteSpace=wrap;html=1;align=center;" parent="1" vertex="1">
          <mxGeometry x="1020" y="893" width="120" height="60" as="geometry" />
        </mxCell>
        <mxCell id="P5Dj7CCU3ey45bR8xJDD-203" value="" style="endArrow=none;html=1;rounded=0;entryX=1;entryY=0.5;entryDx=0;entryDy=0;startArrow=ERoneToMany;startFill=0;" parent="1" source="P5Dj7CCU3ey45bR8xJDD-190" target="P5Dj7CCU3ey45bR8xJDD-202" edge="1">
          <mxGeometry width="50" height="50" relative="1" as="geometry">
            <mxPoint x="1180" y="833" as="sourcePoint" />
            <mxPoint x="1150" y="790" as="targetPoint" />
          </mxGeometry>
        </mxCell>
        <mxCell id="P5Dj7CCU3ey45bR8xJDD-204" value="" style="endArrow=none;html=1;rounded=0;" parent="1" edge="1">
          <mxGeometry width="50" height="50" relative="1" as="geometry">
            <mxPoint x="950" y="930" as="sourcePoint" />
            <mxPoint x="950" y="570" as="targetPoint" />
          </mxGeometry>
        </mxCell>
        <mxCell id="P5Dj7CCU3ey45bR8xJDD-205" value="" style="endArrow=none;html=1;rounded=0;exitX=-0.006;exitY=0.133;exitDx=0;exitDy=0;exitPerimeter=0;startArrow=ERoneToMany;startFill=0;" parent="1" source="P5Dj7CCU3ey45bR8xJDD-174" edge="1">
          <mxGeometry width="50" height="50" relative="1" as="geometry">
            <mxPoint x="1010" y="573" as="sourcePoint" />
            <mxPoint x="950" y="570" as="targetPoint" />
          </mxGeometry>
        </mxCell>
        <mxCell id="P5Dj7CCU3ey45bR8xJDD-206" value="" style="endArrow=none;html=1;rounded=0;exitX=0;exitY=0.5;exitDx=0;exitDy=0;" parent="1" source="P5Dj7CCU3ey45bR8xJDD-202" edge="1">
          <mxGeometry width="50" height="50" relative="1" as="geometry">
            <mxPoint x="1020" y="924.5" as="sourcePoint" />
            <mxPoint x="950" y="923" as="targetPoint" />
          </mxGeometry>
        </mxCell>
        <mxCell id="P5Dj7CCU3ey45bR8xJDD-207" value="&lt;div&gt;Tutoriza&lt;/div&gt;" style="shape=rhombus;perimeter=rhombusPerimeter;whiteSpace=wrap;html=1;align=center;" parent="1" vertex="1">
          <mxGeometry x="1500" y="893" width="120" height="60" as="geometry" />
        </mxCell>
        <mxCell id="P5Dj7CCU3ey45bR8xJDD-208" value="" style="endArrow=ERmandOne;html=1;rounded=0;endFill=0;" parent="1" target="P5Dj7CCU3ey45bR8xJDD-190" edge="1">
          <mxGeometry width="50" height="50" relative="1" as="geometry">
            <mxPoint x="1500" y="923" as="sourcePoint" />
            <mxPoint x="1390" y="922.75" as="targetPoint" />
          </mxGeometry>
        </mxCell>
        <mxCell id="P5Dj7CCU3ey45bR8xJDD-209" value="" style="endArrow=none;html=1;rounded=0;startArrow=ERzeroToOne;startFill=0;" parent="1" source="P5Dj7CCU3ey45bR8xJDD-176" target="P5Dj7CCU3ey45bR8xJDD-207" edge="1">
          <mxGeometry width="50" height="50" relative="1" as="geometry">
            <mxPoint x="1630" y="840" as="sourcePoint" />
            <mxPoint x="1550" y="840" as="targetPoint" />
          </mxGeometry>
        </mxCell>
        <mxCell id="P5Dj7CCU3ey45bR8xJDD-210" value="AntigÃ¼edad" style="whiteSpace=wrap;html=1;align=center;" parent="1" vertex="1">
          <mxGeometry x="1010" y="830" width="90" height="20" as="geometry" />
        </mxCell>
        <mxCell id="P5Dj7CCU3ey45bR8xJDD-211" value="" style="endArrow=none;html=1;rounded=0;entryX=0.5;entryY=1;entryDx=0;entryDy=0;exitX=0.297;exitY=0.2;exitDx=0;exitDy=0;exitPerimeter=0;" parent="1" source="P5Dj7CCU3ey45bR8xJDD-202" target="P5Dj7CCU3ey45bR8xJDD-210" edge="1">
          <mxGeometry relative="1" as="geometry">
            <mxPoint x="1086.02" y="906.3199999999999" as="sourcePoint" />
            <mxPoint x="1073.99" y="849.6599999999999" as="targetPoint" />
          </mxGeometry>
        </mxCell>
        <mxCell id="P5Dj7CCU3ey45bR8xJDD-213" value="&lt;div&gt;Fecha fin&lt;br&gt;&lt;/div&gt;" style="whiteSpace=wrap;html=1;align=center;" parent="1" vertex="1">
          <mxGeometry x="1330" y="470" width="80" height="32" as="geometry" />
        </mxCell>
        <mxCell id="P5Dj7CCU3ey45bR8xJDD-214" value="" style="endArrow=none;html=1;rounded=0;" parent="1" source="P5Dj7CCU3ey45bR8xJDD-182" edge="1">
          <mxGeometry width="50" height="50" relative="1" as="geometry">
            <mxPoint x="1410" y="543" as="sourcePoint" />
            <mxPoint x="1380" y="500" as="targetPoint" />
          </mxGeometry>
        </mxCell>
        <mxCell id="-kM8HJKt0SFnVfMIhRwg-1" value="AntigÃ¼edad" style="whiteSpace=wrap;html=1;align=center;" vertex="1" parent="1">
          <mxGeometry x="520" y="830" width="90" height="20" as="geometry" />
        </mxCell>
        <mxCell id="-kM8HJKt0SFnVfMIhRwg-2" value="" style="endArrow=none;html=1;rounded=0;entryX=0.5;entryY=1;entryDx=0;entryDy=0;exitX=0.297;exitY=0.2;exitDx=0;exitDy=0;exitPerimeter=0;" edge="1" parent="1">
          <mxGeometry relative="1" as="geometry">
            <mxPoint x="610" y="905" as="sourcePoint" />
            <mxPoint x="579" y="850" as="targetPoint" />
          </mxGeometry>
        </mxCell>
        <mxCell id="-kM8HJKt0SFnVfMIhRwg-3" value="AntigÃ¼edad" style="whiteSpace=wrap;html=1;align=center;" vertex="1" parent="1">
          <mxGeometry x="1420" y="830" width="90" height="20" as="geometry" />
        </mxCell>
        <mxCell id="-kM8HJKt0SFnVfMIhRwg-5" value="" style="endArrow=none;html=1;rounded=0;entryX=0.5;entryY=1;entryDx=0;entryDy=0;exitX=0.297;exitY=0.2;exitDx=0;exitDy=0;exitPerimeter=0;" edge="1" parent="1">
          <mxGeometry relative="1" as="geometry">
            <mxPoint x="1531" y="905" as="sourcePoint" />
            <mxPoint x="1500" y="850" as="targetPoint" />
          </mxGeometry>
        </mxCell>
      </root>
    </mxGraphModel>
  </diagram>
</mxfile>
